<svg xmlns="http://www.w3.org/2000/svg" xmlns:xlink="http://www.w3.org/1999/xlink" width="0" height="0" style="display:none;"><symbol viewBox="0 0 24 24" id="twitter-x-line"><path d="M10.4883 14.651L15.25 21H22.25L14.3917 10.5223L20.9308 3H18.2808L13.1643 8.88578L8.75 3H1.75L9.26086 13.0145L2.31915 21H4.96917L10.4883 14.651ZM16.25 19L5.75 5H7.75L18.25 19H16.25Z"></path></symbol><symbol viewBox="0 0 24 24" id="instagram-fill"><path d="M13.0281 2.00073C14.1535 2.00259 14.7238 2.00855 15.2166 2.02322L15.4107 2.02956C15.6349 2.03753 15.8561 2.04753 16.1228 2.06003C17.1869 2.1092 17.9128 2.27753 18.5503 2.52503C19.2094 2.7792 19.7661 3.12253 20.3219 3.67837C20.8769 4.2342 21.2203 4.79253 21.4753 5.45003C21.7219 6.0867 21.8903 6.81337 21.9403 7.87753C21.9522 8.1442 21.9618 8.3654 21.9697 8.58964L21.976 8.78373C21.9906 9.27647 21.9973 9.84686 21.9994 10.9723L22.0002 11.7179C22.0003 11.809 22.0003 11.903 22.0003 12L22.0002 12.2821L21.9996 13.0278C21.9977 14.1532 21.9918 14.7236 21.9771 15.2163L21.9707 15.4104C21.9628 15.6347 21.9528 15.8559 21.9403 16.1225C21.8911 17.1867 21.7219 17.9125 21.4753 18.55C21.2211 19.2092 20.8769 19.7659 20.3219 20.3217C19.7661 20.8767 19.2069 21.22 18.5503 21.475C17.9128 21.7217 17.1869 21.89 16.1228 21.94C15.8561 21.9519 15.6349 21.9616 15.4107 21.9694L15.2166 21.9757C14.7238 21.9904 14.1535 21.997 13.0281 21.9992L12.2824 22C12.1913 22 12.0973 22 12.0003 22L11.7182 22L10.9725 21.9993C9.8471 21.9975 9.27672 21.9915 8.78397 21.9768L8.58989 21.9705C8.36564 21.9625 8.14444 21.9525 7.87778 21.94C6.81361 21.8909 6.08861 21.7217 5.45028 21.475C4.79194 21.2209 4.23444 20.8767 3.67861 20.3217C3.12278 19.7659 2.78028 19.2067 2.52528 18.55C2.27778 17.9125 2.11028 17.1867 2.06028 16.1225C2.0484 15.8559 2.03871 15.6347 2.03086 15.4104L2.02457 15.2163C2.00994 14.7236 2.00327 14.1532 2.00111 13.0278L2.00098 10.9723C2.00284 9.84686 2.00879 9.27647 2.02346 8.78373L2.02981 8.58964C2.03778 8.3654 2.04778 8.1442 2.06028 7.87753C2.10944 6.81253 2.27778 6.08753 2.52528 5.45003C2.77944 4.7917 3.12278 4.2342 3.67861 3.67837C4.23444 3.12253 4.79278 2.78003 5.45028 2.52503C6.08778 2.27753 6.81278 2.11003 7.87778 2.06003C8.14444 2.04816 8.36564 2.03847 8.58989 2.03062L8.78397 2.02433C9.27672 2.00969 9.8471 2.00302 10.9725 2.00086L13.0281 2.00073ZM12.0003 7.00003C9.23738 7.00003 7.00028 9.23956 7.00028 12C7.00028 14.7629 9.23981 17 12.0003 17C14.7632 17 17.0003 14.7605 17.0003 12C17.0003 9.23713 14.7607 7.00003 12.0003 7.00003ZM12.0003 9.00003C13.6572 9.00003 15.0003 10.3427 15.0003 12C15.0003 13.6569 13.6576 15 12.0003 15C10.3434 15 9.00028 13.6574 9.00028 12C9.00028 10.3431 10.3429 9.00003 12.0003 9.00003ZM17.2503 5.50003C16.561 5.50003 16.0003 6.05994 16.0003 6.74918C16.0003 7.43843 16.5602 7.9992 17.2503 7.9992C17.9395 7.9992 18.5003 7.4393 18.5003 6.74918C18.5003 6.05994 17.9386 5.49917 17.2503 5.50003Z"></path></symbol><symbol viewBox="0 0 24 24" id="linkedin-fill"><path d="M6.94048 4.99993C6.94011 5.81424 6.44608 6.54702 5.69134 6.85273C4.9366 7.15845 4.07187 6.97605 3.5049 6.39155C2.93793 5.80704 2.78195 4.93715 3.1105 4.19207C3.43906 3.44699 4.18654 2.9755 5.00048 2.99993C6.08155 3.03238 6.94097 3.91837 6.94048 4.99993ZM7.00048 8.47993H3.00048V20.9999H7.00048V8.47993ZM13.3205 8.47993H9.34048V20.9999H13.2805V14.4299C13.2805 10.7699 18.0505 10.4299 18.0505 14.4299V20.9999H22.0005V13.0699C22.0005 6.89993 14.9405 7.12993 13.2805 10.1599L13.3205 8.47993Z"></path></symbol><symbol viewBox="0 0 24 24" id="facebook-circle-fill"><path d="M12.001 2C6.47813 2 2.00098 6.47715 2.00098 12C2.00098 16.9913 5.65783 21.1283 10.4385 21.8785V14.8906H7.89941V12H10.4385V9.79688C10.4385 7.29063 11.9314 5.90625 14.2156 5.90625C15.3097 5.90625 16.4541 6.10156 16.4541 6.10156V8.5625H15.1931C13.9509 8.5625 13.5635 9.33334 13.5635 10.1242V12H16.3369L15.8936 14.8906H13.5635V21.8785C18.3441 21.1283 22.001 16.9913 22.001 12C22.001 6.47715 17.5238 2 12.001 2Z"></path></symbol><symbol viewBox="0 0 24 24" id="menu-line"><path d="M3 4H21V6H3V4ZM3 11H21V13H3V11ZM3 18H21V20H3V18Z"></path></symbol><symbol viewBox="0 0 24 24" id="shopping-bag-2-fill"><path d="M20.0049 22H4.00488C3.4526 22 3.00488 21.5523 3.00488 21V3C3.00488 2.44772 3.4526 2 4.00488 2H20.0049C20.5572 2 21.0049 2.44772 21.0049 3V21C21.0049 21.5523 20.5572 22 20.0049 22ZM9.00488 6H7.00488V8C7.00488 10.7614 9.24346 13 12.0049 13C14.7663 13 17.0049 10.7614 17.0049 8V6H15.0049V8C15.0049 9.65685 13.6617 11 12.0049 11C10.348 11 9.00488 9.65685 9.00488 8V6Z"></path></symbol><symbol viewBox="0 0 24 24" id="shopping-cart-2-fill"><path d="M4.00436 6.41686L0.761719 3.17422L2.17593 1.76001L5.41857 5.00265H20.6603C21.2126 5.00265 21.6603 5.45037 21.6603 6.00265C21.6603 6.09997 21.6461 6.19678 21.6182 6.29L19.2182 14.29C19.0913 14.713 18.7019 15.0027 18.2603 15.0027H6.00436V17.0027H17.0044V19.0027H5.00436C4.45207 19.0027 4.00436 18.5549 4.00436 18.0027V6.41686ZM5.50436 23.0027C4.67593 23.0027 4.00436 22.3311 4.00436 21.5027C4.00436 20.6742 4.67593 20.0027 5.50436 20.0027C6.33279 20.0027 7.00436 20.6742 7.00436 21.5027C7.00436 22.3311 6.33279 23.0027 5.50436 23.0027ZM17.5044 23.0027C16.6759 23.0027 16.0044 22.3311 16.0044 21.5027C16.0044 20.6742 16.6759 20.0027 17.5044 20.0027C18.3328 20.0027 19.0044 20.6742 19.0044 21.5027C19.0044 22.3311 18.3328 23.0027 17.5044 23.0027Z"></path></symbol><symbol viewBox="0 0 24 24" id="shopping-basket-line"><path d="M12.0049 2C15.3186 2 18.0049 4.68629 18.0049 8V9H22.0049V11H20.8379L20.0813 20.083C20.0381 20.6013 19.6048 21 19.0847 21H4.92502C4.40493 21 3.97166 20.6013 3.92847 20.083L3.17088 11H2.00488V9H6.00488V8C6.00488 4.68629 8.69117 2 12.0049 2ZM18.8309 11H5.17788L5.84488 19H18.1639L18.8309 11ZM13.0049 13V17H11.0049V13H13.0049ZM9.00488 13V17H7.00488V13H9.00488ZM17.0049 13V17H15.0049V13H17.0049ZM12.0049 4C9.86269 4 8.1138 5.68397 8.00978 7.80036L8.00488 8V9H16.0049V8C16.0049 5.8578 14.3209 4.10892 12.2045 4.0049L12.0049 4Z"></path></symbol><symbol viewBox="0 0 24 24" id="customer-service-fill"><path d="M22 17.0022C21.999 19.8731 19.9816 22.2726 17.2872 22.8616L16.6492 20.9476C17.8532 20.7511 18.8765 20.0171 19.4649 19H17C15.8954 19 15 18.1046 15 17V13C15 11.8954 15.8954 11 17 11H19.9381C19.446 7.05369 16.0796 4 12 4C7.92038 4 4.55399 7.05369 4.06189 11H7C8.10457 11 9 11.8954 9 13V17C9 18.1046 8.10457 19 7 19H4C2.89543 19 2 18.1046 2 17V12C2 6.47715 6.47715 2 12 2C17.5228 2 22 6.47715 22 12V12.9987V13V17V17.0013V17.0022Z"></path></symbol><symbol viewBox="0 0 24 24" id="phone-fill"><path d="M21 16.42V19.9561C21 20.4811 20.5941 20.9167 20.0705 20.9537C19.6331 20.9846 19.2763 21 19 21C10.1634 21 3 13.8366 3 5C3 4.72371 3.01545 4.36687 3.04635 3.9295C3.08337 3.40588 3.51894 3 4.04386 3H7.5801C7.83678 3 8.05176 3.19442 8.07753 3.4498C8.10067 3.67907 8.12218 3.86314 8.14207 4.00202C8.34435 5.41472 8.75753 6.75936 9.3487 8.00303C9.44359 8.20265 9.38171 8.44159 9.20185 8.57006L7.04355 10.1118C8.35752 13.1811 10.8189 15.6425 13.8882 16.9565L15.4271 14.8019C15.5572 14.6199 15.799 14.5573 16.001 14.6532C17.2446 15.2439 18.5891 15.6566 20.0016 15.8584C20.1396 15.8782 20.3225 15.8995 20.5502 15.9225C20.8056 15.9483 21 16.1633 21 16.42Z"></path></symbol><symbol viewBox="0 0 24 24" id="github-fill"><path d="M12.001 2C6.47598 2 2.00098 6.475 2.00098 12C2.00098 16.425 4.86348 20.1625 8.83848 21.4875C9.33848 21.575 9.52598 21.275 9.52598 21.0125C9.52598 20.775 9.51348 19.9875 9.51348 19.15C7.00098 19.6125 6.35098 18.5375 6.15098 17.975C6.03848 17.6875 5.55098 16.8 5.12598 16.5625C4.77598 16.375 4.27598 15.9125 5.11348 15.9C5.90098 15.8875 6.46348 16.625 6.65098 16.925C7.55098 18.4375 8.98848 18.0125 9.56348 17.75C9.65098 17.1 9.91348 16.6625 10.201 16.4125C7.97598 16.1625 5.65098 15.3 5.65098 11.475C5.65098 10.3875 6.03848 9.4875 6.67598 8.7875C6.57598 8.5375 6.22598 7.5125 6.77598 6.1375C6.77598 6.1375 7.61348 5.875 9.52598 7.1625C10.326 6.9375 11.176 6.825 12.026 6.825C12.876 6.825 13.726 6.9375 14.526 7.1625C16.4385 5.8625 17.276 6.1375 17.276 6.1375C17.826 7.5125 17.476 8.5375 17.376 8.7875C18.0135 9.4875 18.401 10.375 18.401 11.475C18.401 15.3125 16.0635 16.1625 13.8385 16.4125C14.201 16.725 14.5135 17.325 14.5135 18.2625C14.5135 19.6 14.501 20.675 14.501 21.0125C14.501 21.275 14.6885 21.5875 15.1885 21.4875C19.259 20.1133 21.9999 16.2963 22.001 12C22.001 6.475 17.526 2 12.001 2Z"></path></symbol><symbol viewBox="0 0 24 24" id="registered-fill"><path d="M12 2C17.5228 2 22 6.47715 22 12C22 17.5228 17.5228 22 12 22C6.47715 22 2 17.5228 2 12C2 6.47715 6.47715 2 12 2ZM12.5 7H8V17H10V14H12.217L14.397 17H16.869L14.3191 13.4907C15.327 12.8763 16 11.7668 16 10.5C16 8.63144 14.5357 7.10487 12.692 7.00518L12.5 7ZM12.5 9C13.2797 9 13.9204 9.59489 13.9931 10.3555L14 10.5L13.9931 10.6445C13.925 11.3576 13.3576 11.925 12.6445 11.9931L12.5 12H10V9H12.5Z"></path></symbol><symbol viewBox="0 0 24 24" id="tools-fill"><path d="M5.32943 3.27158C6.56252 2.8332 7.9923 3.10749 8.97927 4.09446C9.96652 5.08171 10.2407 6.51202 9.80178 7.74535L20.6465 18.5902L18.5252 20.7115L7.67936 9.86709C6.44627 10.3055 5.01649 10.0312 4.02952 9.04421C3.04227 8.05696 2.7681 6.62665 3.20701 5.39332L5.44373 7.63C6.02952 8.21578 6.97927 8.21578 7.56505 7.63C8.15084 7.04421 8.15084 6.09446 7.56505 5.50868L5.32943 3.27158ZM15.6968 5.15512L18.8788 3.38736L20.293 4.80157L18.5252 7.98355L16.7574 8.3371L14.6361 10.4584L13.2219 9.04421L15.3432 6.92289L15.6968 5.15512ZM8.62572 12.9333L10.747 15.0546L5.79729 20.0044C5.2115 20.5902 4.26175 20.5902 3.67597 20.0044C3.12464 19.453 3.09221 18.5793 3.57867 17.99L3.67597 17.883L8.62572 12.9333Z"></path></symbol><symbol viewBox="0 0 24 24" id="equalizer-fill"><path d="M6.17071 18C6.58254 16.8348 7.69378 16 9 16C10.3062 16 11.4175 16.8348 11.8293 18H22V20H11.8293C11.4175 21.1652 10.3062 22 9 22C7.69378 22 6.58254 21.1652 6.17071 20H2V18H6.17071ZM12.1707 11C12.5825 9.83481 13.6938 9 15 9C16.3062 9 17.4175 9.83481 17.8293 11H22V13H17.8293C17.4175 14.1652 16.3062 15 15 15C13.6938 15 12.5825 14.1652 12.1707 13H2V11H12.1707ZM6.17071 4C6.58254 2.83481 7.69378 2 9 2C10.3062 2 11.4175 2.83481 11.8293 4H22V6H11.8293C11.4175 7.16519 10.3062 8 9 8C7.69378 8 6.58254 7.16519 6.17071 6H2V4H6.17071Z"></path></symbol><symbol viewBox="0 0 24 24" id="settings-5-line"><path d="M2.21232 14.0601C1.91928 12.6755 1.93115 11.2743 2.21316 9.94038C3.32308 10.0711 4.29187 9.7035 4.60865 8.93871C4.92544 8.17392 4.50032 7.22896 3.62307 6.53655C4.3669 5.3939 5.34931 4.39471 6.53554 3.62289C7.228 4.50059 8.17324 4.92601 8.93822 4.60914C9.7032 4.29227 10.0708 3.32308 9.93979 2.21281C11.3243 1.91977 12.7255 1.93164 14.0595 2.21364C13.9288 3.32356 14.2964 4.29235 15.0612 4.60914C15.8259 4.92593 16.7709 4.5008 17.4633 3.62356C18.606 4.36739 19.6052 5.3498 20.377 6.53602C19.4993 7.22849 19.0739 8.17373 19.3907 8.93871C19.7076 9.70369 20.6768 10.0713 21.7871 9.94028C22.0801 11.3248 22.0682 12.726 21.7862 14.06C20.6763 13.9293 19.7075 14.2969 19.3907 15.0616C19.0739 15.8264 19.4991 16.7714 20.3763 17.4638C19.6325 18.6064 18.6501 19.6056 17.4638 20.3775C16.7714 19.4998 15.8261 19.0743 15.0612 19.3912C14.2962 19.7081 13.9286 20.6773 14.0596 21.7875C12.675 22.0806 11.2738 22.0687 9.93989 21.7867C10.0706 20.6768 9.70301 19.708 8.93822 19.3912C8.17343 19.0744 7.22848 19.4995 6.53606 20.3768C5.39341 19.633 4.39422 18.6506 3.62241 17.4643C4.5001 16.7719 4.92552 15.8266 4.60865 15.0616C4.29179 14.2967 3.32259 13.9291 2.21232 14.0601ZM3.99975 12.2104C5.09956 12.5148 6.00718 13.2117 6.45641 14.2963C6.90564 15.3808 6.75667 16.5154 6.19421 17.5083C6.29077 17.61 6.38998 17.7092 6.49173 17.8056C7.4846 17.2432 8.61912 17.0943 9.70359 17.5435C10.7881 17.9927 11.485 18.9002 11.7894 19.9999C11.9295 20.0037 12.0697 20.0038 12.2099 20.0001C12.5143 18.9003 13.2112 17.9927 14.2958 17.5435C15.3803 17.0942 16.5149 17.2432 17.5078 17.8057C17.6096 17.7091 17.7087 17.6099 17.8051 17.5081C17.2427 16.5153 17.0938 15.3807 17.543 14.2963C17.9922 13.2118 18.8997 12.5149 19.9994 12.2105C20.0032 12.0704 20.0033 11.9301 19.9996 11.7899C18.8998 11.4856 17.9922 10.7886 17.543 9.70407C17.0937 8.61953 17.2427 7.48494 17.8052 6.49204C17.7086 6.39031 17.6094 6.2912 17.5076 6.19479C16.5148 6.75717 15.3803 6.9061 14.2958 6.4569C13.2113 6.0077 12.5144 5.10016 12.21 4.00044C12.0699 3.99666 11.9297 3.99659 11.7894 4.00024C11.4851 5.10005 10.7881 6.00767 9.70359 6.4569C8.61904 6.90613 7.48446 6.75715 6.49155 6.1947C6.38982 6.29126 6.29071 6.39047 6.19431 6.49222C6.75668 7.48509 6.90561 8.61961 6.45641 9.70407C6.00721 10.7885 5.09967 11.4855 3.99995 11.7899C3.99617 11.93 3.9961 12.0702 3.99975 12.2104ZM11.9997 15.0002C10.3428 15.0002 8.99969 13.657 8.99969 12.0002C8.99969 10.3433 10.3428 9.00018 11.9997 9.00018C13.6565 9.00018 14.9997 10.3433 14.9997 12.0002C14.9997 13.657 13.6565 15.0002 11.9997 15.0002ZM11.9997 13.0002C12.552 13.0002 12.9997 12.5525 12.9997 12.0002C12.9997 11.4479 12.552 11.0002 11.9997 11.0002C11.4474 11.0002 10.9997 11.4479 10.9997 12.0002C10.9997 12.5525 11.4474 13.0002 11.9997 13.0002Z"></path></symbol><symbol viewBox="0 0 24 24" id="reset-right-line"><path d="M2 12C2 17.5228 6.47715 22 12 22C17.5228 22 22 17.5228 22 12C22 6.47715 17.5228 2 12 2V4C16.4183 4 20 7.58172 20 12C20 16.4183 16.4183 20 12 20C7.58172 20 4 16.4183 4 12C4 9.25022 5.38734 6.82447 7.50024 5.38451L7.5 8H9.5V2L3.5 2V4L5.99918 3.99989C3.57075 5.82434 2 8.72873 2 12Z"></path></symbol><symbol viewBox="0 0 24 24" id="user-settings-fill"><path d="M12 14V22H4C4 17.5817 7.58172 14 12 14ZM12 13C8.685 13 6 10.315 6 7C6 3.685 8.685 1 12 1C15.315 1 18 3.685 18 7C18 10.315 15.315 13 12 13ZM14.5946 18.8115C14.5327 18.5511 14.5 18.2794 14.5 18C14.5 17.7207 14.5327 17.449 14.5945 17.1886L13.6029 16.6161L14.6029 14.884L15.5952 15.4569C15.9883 15.0851 16.4676 14.8034 17 14.6449V13.5H19V14.6449C19.5324 14.8034 20.0116 15.0851 20.4047 15.4569L21.3971 14.8839L22.3972 16.616L21.4055 17.1885C21.4673 17.449 21.5 17.7207 21.5 18C21.5 18.2793 21.4673 18.551 21.4055 18.8114L22.3972 19.3839L21.3972 21.116L20.4048 20.543C20.0117 20.9149 19.5325 21.1966 19.0001 21.355V22.5H17.0001V21.3551C16.4677 21.1967 15.9884 20.915 15.5953 20.5431L14.603 21.1161L13.6029 19.384L14.5946 18.8115ZM18 17C17.4477 17 17 17.4477 17 18C17 18.5523 17.4477 19 18 19C18.5523 19 19 18.5523 19 18C19 17.4477 18.5523 17 18 17Z"></path></symbol><symbol viewBox="0 0 24 24" id="close-circle-fill"><path d="M12 22C6.47715 22 2 17.5228 2 12C2 6.47715 6.47715 2 12 2C17.5228 2 22 6.47715 22 12C22 17.5228 17.5228 22 12 22ZM12 10.5858L9.17157 7.75736L7.75736 9.17157L10.5858 12L7.75736 14.8284L9.17157 16.2426L12 13.4142L14.8284 16.2426L16.2426 14.8284L13.4142 12L16.2426 9.17157L14.8284 7.75736L12 10.5858Z"></path></symbol><symbol viewBox="0 0 24 24" id="message-3-line"><path d="M2 8.99374C2 5.68349 4.67654 3 8.00066 3H15.9993C19.3134 3 22 5.69478 22 8.99374V21H8.00066C4.68659 21 2 18.3052 2 15.0063V8.99374ZM20 19V8.99374C20 6.79539 18.2049 5 15.9993 5H8.00066C5.78458 5 4 6.78458 4 8.99374V15.0063C4 17.2046 5.79512 19 8.00066 19H20ZM14 11H16V13H14V11ZM8 11H10V13H8V11Z"></path></symbol><symbol viewBox="0 0 24 24" id="user-2-line"><path d="M4 22C4 17.5817 7.58172 14 12 14C16.4183 14 20 17.5817 20 22H4ZM13 16.083V20H17.6586C16.9423 17.9735 15.1684 16.4467 13 16.083ZM11 20V16.083C8.83165 16.4467 7.05766 17.9735 6.34141 20H11ZM12 13C8.685 13 6 10.315 6 7C6 3.685 8.685 1 12 1C15.315 1 18 3.685 18 7C18 10.315 15.315 13 12 13ZM12 11C14.2104 11 16 9.21043 16 7C16 4.78957 14.2104 3 12 3C9.78957 3 8 4.78957 8 7C8 9.21043 9.78957 11 12 11Z"></path></symbol><symbol viewBox="0 0 24 24" id="arrow-left-circle-fill"><path d="M12 2C17.52 2 22 6.48 22 12C22 17.52 17.52 22 12 22C6.48 22 2 17.52 2 12C2 6.48 6.48 2 12 2ZM12 11V8L8 12L12 16V13H16V11H12Z"></path></symbol><symbol viewBox="0 0 24 24" id="arrow-down-circle-fill"><path d="M12 2C17.52 2 22 6.48 22 12C22 17.52 17.52 22 12 22C6.48 22 2 17.52 2 12C2 6.48 6.48 2 12 2ZM13 12V8H11V12H8L12 16L16 12H13Z"></path></symbol><symbol viewBox="0 0 24 24" id="arrow-right-circle-fill"><path d="M12 2C17.52 2 22 6.48 22 12C22 17.52 17.52 22 12 22C6.48 22 2 17.52 2 12C2 6.48 6.48 2 12 2ZM12 11H8V13H12V16L16 12L12 8V11Z"></path></symbol><symbol viewBox="0 0 24 24" id="arrow-up-circle-fill"><path d="M12 2C17.52 2 22 6.48 22 12C22 17.52 17.52 22 12 22C6.48 22 2 17.52 2 12C2 6.48 6.48 2 12 2ZM13 12H16L12 8L8 12H11V16H13V12Z"></path></symbol><symbol viewBox="0 0 24 24" id="code-box-fill"><path d="M3 3H21C21.5523 3 22 3.44772 22 4V20C22 20.5523 21.5523 21 21 21H3C2.44772 21 2 20.5523 2 20V4C2 3.44772 2.44772 3 3 3ZM16.4645 15.5355L20 12L16.4645 8.46447L15.0503 9.87868L17.1716 12L15.0503 14.1213L16.4645 15.5355ZM6.82843 12L8.94975 9.87868L7.53553 8.46447L4 12L7.53553 15.5355L8.94975 14.1213L6.82843 12ZM11.2443 17L14.884 7H12.7557L9.11597 17H11.2443Z"></path></symbol><symbol viewBox="0 0 24 24" id="html5-fill"><path d="M12 18.1778L16.6192 16.9222L17.2434 10.1444H9.02648L8.82219 7.88889H17.4477L17.6747 5.67778H6.32535L6.96091 12.3556H14.7806L14.5195 15.2222L12 15.8889L9.48045 15.2222L9.32156 13.3778H7.0517L7.38083 16.9222L12 18.1778ZM3 2H21L19.377 20L12 22L4.62295 20L3 2Z"></path></symbol><symbol viewBox="0 0 24 24" id="css3-fill"><path d="M5.00006 3L4.35006 6.34H17.9401L17.5001 8.5H3.92006L3.26006 11.83H16.8501L16.0901 15.64L10.6101 17.45L5.86006 15.64L6.19006 14H2.85006L2.06006 18L9.91006 21L18.9601 18L20.1601 11.97L20.4001 10.76L21.9401 3H5.00006Z"></path></symbol><symbol viewBox="0 0 24 24" id="javascript-fill"><path d="M6 3C4.34315 3 3 4.34315 3 6V18C3 19.6569 4.34315 21 6 21H18C19.6569 21 21 19.6569 21 18V6C21 4.34315 19.6569 3 18 3H6ZM13.3344 16.055C14.0531 16.6343 14.7717 16.9203 15.4904 16.913C15.9304 16.913 16.2677 16.8323 16.5024 16.671C16.7297 16.517 16.8434 16.297 16.8434 16.011C16.8434 15.7177 16.7297 15.4683 16.5024 15.263C16.2677 15.0577 15.8241 14.8523 15.1714 14.647C14.3867 14.4197 13.7817 14.1263 13.3564 13.767C12.9384 13.4077 12.7257 12.9053 12.7184 12.26C12.7184 11.6513 12.9824 11.1417 13.5104 10.731C14.0237 10.3203 14.6801 10.115 15.4794 10.115C16.5941 10.115 17.4887 10.3863 18.1634 10.929L17.3934 12.128C17.1221 11.9153 16.8104 11.7613 16.4584 11.666C16.1064 11.556 15.7911 11.501 15.5124 11.501C15.1311 11.501 14.8267 11.5707 14.5994 11.71C14.3721 11.8493 14.2584 12.0327 14.2584 12.26C14.2584 12.5093 14.3977 12.722 14.6764 12.898C14.9551 13.0667 15.4317 13.2537 16.1064 13.459C16.9204 13.701 17.4997 14.0237 17.8444 14.427C18.1891 14.8303 18.3614 15.3437 18.3614 15.967C18.3614 16.605 18.1157 17.155 17.6244 17.617C17.1404 18.0717 16.4364 18.31 15.5124 18.332C14.3024 18.332 13.2904 17.969 12.4764 17.243L13.3344 16.055ZM7.80405 16.693C8.03872 16.8397 8.32105 16.913 8.65105 16.913C8.99572 16.913 9.28172 16.814 9.50905 16.616C9.73639 16.4107 9.85005 16.055 9.85005 15.549V10.247H11.3351V15.835C11.3131 16.7003 11.0637 17.3237 10.5871 17.705C10.3157 17.9323 10.0187 18.0937 9.69605 18.189C9.37339 18.2843 9.06172 18.332 8.76105 18.332C8.21105 18.332 7.72339 18.2367 7.29805 18.046C6.84339 17.8407 6.46205 17.4777 6.15405 16.957L7.18805 16.11C7.37872 16.3667 7.58405 16.561 7.80405 16.693Z"></path></symbol><symbol viewBox="0 0 24 24" id="php-fill"><path d="M4.931 9.45962H3.59366L2.86408 13.211H4.05124C4.83891 13.211 5.42541 13.0622 5.81074 12.7661C6.19608 12.4686 6.45533 11.9742 6.58991 11.28C6.72024 10.6142 6.66075 10.1439 6.41425 9.87045C6.16633 9.59703 5.67333 9.45962 4.931 9.45962ZM7.38183 13.6133C7.01208 13.9675 6.56725 14.2338 6.08275 14.3939C5.60675 14.5469 4.999 14.6262 4.26233 14.6262H2.58924L2.126 17.0076H0.173828L1.91633 8.04578H5.67049C6.79958 8.04578 7.62266 8.34187 8.14116 8.93545C8.65966 9.52762 8.81549 10.355 8.60866 11.4175C8.52944 11.8379 8.38357 12.243 8.17658 12.6174C7.97399 12.9786 7.70908 13.3115 7.38183 13.6133ZM13.0825 14.6262L13.8517 10.661C13.941 10.2105 13.907 9.90162 13.7554 9.7387C13.6038 9.57437 13.2794 9.4922 12.7822 9.4922H11.2352L10.2378 14.6276H8.29983L10.0423 5.66437H11.9789L11.5157 8.0472H13.2412C14.3277 8.0472 15.0757 8.23703 15.488 8.61528C15.9002 8.99353 16.0235 9.60695 15.8606 10.4555L15.0502 14.6262H13.0825ZM23.8449 11.4175C23.767 11.8382 23.621 12.2435 23.4128 12.6174C23.2102 12.9786 22.9453 13.3115 22.6181 13.6133C22.2481 13.9664 21.8044 14.233 21.319 14.3939C20.843 14.5469 20.2352 14.6262 19.4972 14.6262H17.8255L17.3622 17.009H15.4101L17.1526 8.0472H20.9053C22.0344 8.0472 22.8575 8.34328 23.376 8.93687C23.8945 9.52762 24.0517 10.355 23.8449 11.4175ZM20.1687 9.45962H18.8327L18.1017 13.211H19.2889C20.078 13.211 20.6645 13.0622 21.0484 12.7661C21.4337 12.4686 21.693 11.9742 21.829 11.28C21.9593 10.6142 21.8984 10.1439 21.6519 9.87045C21.4054 9.59703 20.9096 9.45962 20.1687 9.45962Z"></path></symbol><symbol viewBox="0 0 24 24" id="database-2-line"><path d="M5 12.5C5 12.8134 5.46101 13.3584 6.53047 13.8931C7.91405 14.5849 9.87677 15 12 15C14.1232 15 16.0859 14.5849 17.4695 13.8931C18.539 13.3584 19 12.8134 19 12.5V10.3287C17.35 11.3482 14.8273 12 12 12C9.17273 12 6.64996 11.3482 5 10.3287V12.5ZM19 15.3287C17.35 16.3482 14.8273 17 12 17C9.17273 17 6.64996 16.3482 5 15.3287V17.5C5 17.8134 5.46101 18.3584 6.53047 18.8931C7.91405 19.5849 9.87677 20 12 20C14.1232 20 16.0859 19.5849 17.4695 18.8931C18.539 18.3584 19 17.8134 19 17.5V15.3287ZM3 17.5V7.5C3 5.01472 7.02944 3 12 3C16.9706 3 21 5.01472 21 7.5V17.5C21 19.9853 16.9706 22 12 22C7.02944 22 3 19.9853 3 17.5ZM12 10C14.1232 10 16.0859 9.58492 17.4695 8.89313C18.539 8.3584 19 7.81342 19 7.5C19 7.18658 18.539 6.6416 17.4695 6.10687C16.0859 5.41508 14.1232 5 12 5C9.87677 5 7.91405 5.41508 6.53047 6.10687C5.46101 6.6416 5 7.18658 5 7.5C5 7.81342 5.46101 8.3584 6.53047 8.89313C7.91405 9.58492 9.87677 10 12 10Z"></path></symbol><symbol viewBox="0 0 24 24" id="server-line"><path d="M5 11H19V5H5V11ZM21 4V20C21 20.5523 20.5523 21 20 21H4C3.44772 21 3 20.5523 3 20V4C3 3.44772 3.44772 3 4 3H20C20.5523 3 21 3.44772 21 4ZM19 13H5V19H19V13ZM7 15H10V17H7V15ZM7 7H10V9H7V7Z"></path></symbol><symbol viewBox="0 0 24 24" id="book-line"><path d="M3 18.5V5C3 3.34315 4.34315 2 6 2H20C20.5523 2 21 2.44772 21 3V21C21 21.5523 20.5523 22 20 22H6.5C4.567 22 3 20.433 3 18.5ZM19 20V17H6.5C5.67157 17 5 17.6716 5 18.5C5 19.3284 5.67157 20 6.5 20H19ZM5 15.3368C5.45463 15.1208 5.9632 15 6.5 15H19V4H6C5.44772 4 5 4.44772 5 5V15.3368Z"></path></symbol><symbol viewBox="0 0 24 24" id="cash-line"><path d="M12.0004 16C14.2095 16 16.0004 14.2091 16.0004 12 16.0004 9.79086 14.2095 8 12.0004 8 9.79123 8 8.00037 9.79086 8.00037 12 8.00037 14.2091 9.79123 16 12.0004 16ZM21.0049 4.00293H3.00488C2.4526 4.00293 2.00488 4.45064 2.00488 5.00293V19.0029C2.00488 19.5552 2.4526 20.0029 3.00488 20.0029H21.0049C21.5572 20.0029 22.0049 19.5552 22.0049 19.0029V5.00293C22.0049 4.45064 21.5572 4.00293 21.0049 4.00293ZM4.00488 15.6463V8.35371C5.13065 8.017 6.01836 7.12892 6.35455 6.00293H17.6462C17.9833 7.13193 18.8748 8.02175 20.0049 8.3564V15.6436C18.8729 15.9788 17.9802 16.8711 17.6444 18.0029H6.3563C6.02144 16.8742 5.13261 15.9836 4.00488 15.6463Z"></path></symbol><symbol viewBox="0 0 24 24" id="hand-heart-fill"><path d="M9.3349 11.5022L11.5049 11.5027C13.9902 11.5027 16.0049 13.5174 16.0049 16.0027L9.00388 16.0018L9.00488 17.0027L17.0049 17.0019V16.0027C17.0049 14.9202 16.6867 13.8996 16.1188 13.0019L19.0049 13.0027C20.9972 13.0027 22.7173 14.1679 23.521 15.8541C21.1562 18.9747 17.3268 21.0027 13.0049 21.0027C10.2436 21.0027 7.90437 20.4121 6.00447 19.3779L6.00592 10.0737C7.25147 10.2521 8.39122 10.7583 9.3349 11.5022ZM4.00488 9.00268C4.51772 9.00268 4.94039 9.38872 4.99816 9.88606L5.00488 10.0018V19.0027C5.00488 19.555 4.55717 20.0027 4.00488 20.0027H2.00488C1.4526 20.0027 1.00488 19.555 1.00488 19.0027V10.0027C1.00488 9.45039 1.4526 9.00268 2.00488 9.00268H4.00488ZM13.6513 3.57806L14.0046 3.93183L14.3584 3.57806C15.3347 2.60175 16.9177 2.60175 17.894 3.57806C18.8703 4.55437 18.8703 6.13728 17.894 7.11359L14.0049 11.0027L10.1158 7.11359C9.13948 6.13728 9.13948 4.55437 10.1158 3.57806C11.0921 2.60175 12.675 2.60175 13.6513 3.57806Z"></path></symbol><symbol viewBox="0 0 24 24" id="mail-send-fill"><path d="M2 5.5V3.9934C2 3.44476 2.45531 3 2.9918 3H21.0082C21.556 3 22 3.44495 22 3.9934V20.0066C22 20.5552 21.5447 21 21.0082 21H2.9918C2.44405 21 2 20.5551 2 20.0066V19H20V7.3L12 14.5L2 5.5ZM0 10H5V12H0V10ZM0 15H8V17H0V15Z"></path></symbol><symbol viewBox="0 0 24 24" id="mail-fill"><path d="M3 3H21C21.5523 3 22 3.44772 22 4V20C22 20.5523 21.5523 21 21 21H3C2.44772 21 2 20.5523 2 20V4C2 3.44772 2.44772 3 3 3ZM12.0606 11.6829L5.64722 6.2377L4.35278 7.7623L12.0731 14.3171L19.6544 7.75616L18.3456 6.24384L12.0606 11.6829Z"></path></symbol><symbol viewBox="0 0 24 24" id="heart-fill"><path d="M12.001 4.52853C14.35 2.42 17.98 2.49 20.2426 4.75736C22.5053 7.02472 22.583 10.637 20.4786 12.993L11.9999 21.485L3.52138 12.993C1.41705 10.637 1.49571 7.01901 3.75736 4.75736C6.02157 2.49315 9.64519 2.41687 12.001 4.52853Z"></path></symbol><symbol viewBox="0 0 24 24" id="global-line"><path d="M12 22C6.47715 22 2 17.5228 2 12C2 6.47715 6.47715 2 12 2C17.5228 2 22 6.47715 22 12C22 17.5228 17.5228 22 12 22ZM9.71002 19.6674C8.74743 17.6259 8.15732 15.3742 8.02731 13H4.06189C4.458 16.1765 6.71639 18.7747 9.71002 19.6674ZM10.0307 13C10.1811 15.4388 10.8778 17.7297 12 19.752C13.1222 17.7297 13.8189 15.4388 13.9693 13H10.0307ZM19.9381 13H15.9727C15.8427 15.3742 15.2526 17.6259 14.29 19.6674C17.2836 18.7747 19.542 16.1765 19.9381 13ZM4.06189 11H8.02731C8.15732 8.62577 8.74743 6.37407 9.71002 4.33256C6.71639 5.22533 4.458 7.8235 4.06189 11ZM10.0307 11H13.9693C13.8189 8.56122 13.1222 6.27025 12 4.24799C10.8778 6.27025 10.1811 8.56122 10.0307 11ZM14.29 4.33256C15.2526 6.37407 15.8427 8.62577 15.9727 11H19.9381C19.542 7.8235 17.2836 5.22533 14.29 4.33256Z"></path></symbol><symbol viewBox="0 0 24 24" id="home-fill"><path d="M21 20C21 20.5523 20.5523 21 20 21H4C3.44772 21 3 20.5523 3 20V9.48907C3 9.18048 3.14247 8.88917 3.38606 8.69972L11.3861 2.47749C11.7472 2.19663 12.2528 2.19663 12.6139 2.47749L20.6139 8.69972C20.8575 8.88917 21 9.18048 21 9.48907V20Z"></path></symbol><symbol viewBox="0 0 24 24" id="reactjs-fill"><path d="M14.448 16.2394C13.8809 17.0412 13.2933 17.7714 12.7015 18.4146C14.3738 20.0375 15.9291 20.7975 16.792 20.2993C17.6549 19.8011 17.7744 18.0742 17.2051 15.8145C16.3521 16.0054 15.426 16.1492 14.448 16.2394ZM13.138 16.3265C12.7641 16.342 12.3845 16.3499 12.0003 16.3499C11.6161 16.3499 11.2365 16.342 10.8627 16.3265C11.2394 16.8188 11.6208 17.2749 12.0003 17.6905C12.3798 17.2749 12.7612 16.8188 13.138 16.3265ZM18.1787 8.43278C20.8434 9.19718 22.5837 10.4672 22.5837 11.9999C22.5837 13.5325 20.8434 14.8026 18.1787 15.567C18.8491 18.2569 18.6193 20.399 17.292 21.1653C15.9647 21.9316 13.9947 21.0595 12.0003 19.134C10.006 21.0595 8.03596 21.9316 6.70866 21.1653C5.38136 20.399 5.15158 18.2569 5.82195 15.567C3.15724 14.8026 1.41699 13.5325 1.41699 11.9999C1.41699 10.4672 3.15724 9.19718 5.82195 8.43278C5.15158 5.74288 5.38136 3.60075 6.70866 2.83443C8.03596 2.06811 10.006 2.94019 12.0003 4.86569C13.9947 2.94019 15.9647 2.06811 17.292 2.83443C18.6193 3.60075 18.8491 5.74288 18.1787 8.43278ZM17.2051 8.18527C17.7744 5.92558 17.6549 4.19865 16.792 3.70046C15.9291 3.20226 14.3738 3.96221 12.7015 5.58509C13.2933 6.2283 13.8809 6.95849 14.448 7.76031C15.426 7.85054 16.3521 7.99432 17.2051 8.18527ZM6.79554 15.8145C6.22624 18.0742 6.34577 19.8011 7.20866 20.2993C8.07155 20.7975 9.62688 20.0375 11.2992 18.4146C10.7073 17.7714 10.1197 17.0412 9.55262 16.2394C8.57467 16.1492 7.6485 16.0054 6.79554 15.8145ZM10.8627 7.67324C11.2365 7.65776 11.6161 7.64987 12.0003 7.64987C12.3845 7.64987 12.7641 7.65776 13.138 7.67324C12.7612 7.18096 12.3798 6.7248 12.0003 6.30922C11.6208 6.7248 11.2394 7.18096 10.8627 7.67324ZM9.55262 7.76031C10.1197 6.95849 10.7073 6.2283 11.2992 5.58509C9.62688 3.96221 8.07155 3.20226 7.20866 3.70046C6.34577 4.19865 6.22624 5.92558 6.79554 8.18527C7.6485 7.99432 8.57467 7.85054 9.55262 7.76031ZM13.8939 15.2797C14.2395 14.7728 14.5772 14.2366 14.9015 13.6749C15.2258 13.1131 15.5213 12.5526 15.7875 11.9999C15.5213 11.4471 15.2258 10.8866 14.9015 10.3249C14.5772 9.76311 14.2395 9.22694 13.8939 8.72005C13.2821 8.6742 12.649 8.64987 12.0003 8.64987C11.3517 8.64987 10.7185 8.6742 10.1067 8.72005C9.76112 9.22694 9.42347 9.76311 9.09914 10.3249C8.77481 10.8866 8.4793 11.4471 8.21312 11.9999C8.4793 12.5526 8.77481 13.1131 9.09914 13.6749C9.42347 14.2366 9.76112 14.7728 10.1067 15.2797C10.7185 15.3255 11.3517 15.3499 12.0003 15.3499C12.649 15.3499 13.2821 15.3255 13.8939 15.2797ZM15.1785 15.1484C15.7932 15.0683 16.3789 14.9661 16.9286 14.8452C16.7584 14.3087 16.5541 13.7504 16.3161 13.178C16.1426 13.5095 15.9596 13.8421 15.7675 14.1749C15.5754 14.5076 15.3788 14.8324 15.1785 15.1484ZM8.82218 8.85133C8.20747 8.93147 7.62174 9.03367 7.07208 9.15454C7.24223 9.691 7.44659 10.2494 7.68454 10.8218C7.85806 10.4903 8.04101 10.1576 8.23311 9.82487C8.42522 9.49212 8.62185 9.16736 8.82218 8.85133ZM7.07208 14.8452C7.62174 14.9661 8.20747 15.0683 8.82218 15.1484C8.62185 14.8324 8.42522 14.5076 8.23311 14.1749C8.04101 13.8421 7.85806 13.5095 7.68454 13.178C7.44659 13.7504 7.24223 14.3087 7.07208 14.8452ZM6.09439 14.6C6.35551 13.7659 6.69407 12.8919 7.10491 11.9999C6.69407 11.1078 6.35551 10.2339 6.09439 9.39969C3.85279 10.0365 2.41699 11.0035 2.41699 11.9999C2.41699 12.9962 3.85279 13.9632 6.09439 14.6ZM16.9286 9.15454C16.3789 9.03367 15.7932 8.93147 15.1785 8.85133C15.3788 9.16736 15.5754 9.49212 15.7675 9.82487C15.9596 10.1576 16.1426 10.4903 16.3161 10.8218C16.5541 10.2494 16.7584 9.691 16.9286 9.15454ZM17.9063 9.39969C17.6451 10.2339 17.3066 11.1078 16.8957 11.9999C17.3066 12.8919 17.6451 13.7659 17.9063 14.6C20.1479 13.9632 21.5837 12.9962 21.5837 11.9999C21.5837 11.0035 20.1479 10.0365 17.9063 9.39969ZM12.0003 13.879C10.9625 13.879 10.1212 13.0377 10.1212 11.9999C10.1212 10.962 10.9625 10.1207 12.0003 10.1207C13.0382 10.1207 13.8795 10.962 13.8795 11.9999C13.8795 13.0377 13.0382 13.879 12.0003 13.879Z"></path></symbol><symbol viewBox="0 0 24 24" id="earth-fill"><path d="M12 2C17.5228 2 22 6.47715 22 12C22 17.5228 17.5228 22 12 22C6.47715 22 2 17.5228 2 12C2 6.47715 6.47715 2 12 2ZM16.0043 12.8777C15.6589 12.3533 15.4097 11.9746 14.4622 12.1248C12.6717 12.409 12.4732 12.7224 12.3877 13.2375L12.3636 13.3943L12.3393 13.5597C12.2416 14.2428 12.2453 14.5012 12.5589 14.8308C13.8241 16.1582 14.582 17.115 14.8116 17.6746C14.9237 17.9484 15.2119 18.7751 15.0136 19.5927C16.2372 19.1066 17.3156 18.3332 18.1653 17.3559C18.2755 16.9821 18.3551 16.5166 18.3551 15.9518V15.8472C18.3551 14.9247 18.3551 14.504 17.7031 14.1314C17.428 13.9751 17.2227 13.881 17.0582 13.8064C16.691 13.6394 16.4479 13.5297 16.1198 13.0499C16.0807 12.9928 16.0425 12.9358 16.0043 12.8777ZM12 3.83333C9.68259 3.83333 7.59062 4.79858 6.1042 6.34896C6.28116 6.47186 6.43537 6.64453 6.54129 6.88256C6.74529 7.34029 6.74529 7.8112 6.74529 8.22764C6.74488 8.55621 6.74442 8.8672 6.84992 9.09302C6.99443 9.40134 7.6164 9.53227 8.16548 9.64736C8.36166 9.68867 8.56395 9.73083 8.74797 9.78176C9.25405 9.92233 9.64554 10.3765 9.95938 10.7412C10.0896 10.8931 10.2819 11.1163 10.3783 11.1717C10.4286 11.1356 10.59 10.9608 10.6699 10.6735C10.7307 10.4547 10.7134 10.2597 10.6239 10.1543C10.0648 9.49445 10.0952 8.2232 10.268 7.75495C10.5402 7.01606 11.3905 7.07058 12.012 7.11097C12.2438 7.12589 12.4626 7.14023 12.6257 7.11976C13.2482 7.04166 13.4396 6.09538 13.575 5.91C13.8671 5.50981 14.7607 4.9071 15.3158 4.53454C14.3025 4.08382 13.1805 3.83333 12 3.83333Z"></path></symbol><symbol viewBox="0 0 24 24" id="file-line"><path d="M9 2.00318V2H19.9978C20.5513 2 21 2.45531 21 2.9918V21.0082C21 21.556 20.5551 22 20.0066 22H3.9934C3.44476 22 3 21.5501 3 20.9932V8L9 2.00318ZM5.82918 8H9V4.83086L5.82918 8ZM11 4V9C11 9.55228 10.5523 10 10 10H5V20H19V4H11Z"></path></symbol><symbol viewBox="0 0 24 24" id="indeterminate-circle-line"><path d="M12 22C6.47715 22 2 17.5228 2 12C2 6.47715 6.47715 2 12 2C17.5228 2 22 6.47715 22 12C22 17.5228 17.5228 22 12 22ZM12 20C16.4183 20 20 16.4183 20 12C20 7.58172 16.4183 4 12 4C7.58172 4 4 7.58172 4 12C4 16.4183 7.58172 20 12 20ZM7 11H17V13H7V11Z"></path></symbol><symbol viewBox="0 0 24 24" id="checkbox-blank-fill"><path d="M4 3H20C20.5523 3 21 3.44772 21 4V20C21 20.5523 20.5523 21 20 21H4C3.44772 21 3 20.5523 3 20V4C3 3.44772 3.44772 3 4 3Z"></path></symbol><symbol viewBox="0 0 24 24" id="checkbox-fill"><path d="M4 3H20C20.5523 3 21 3.44772 21 4V20C21 20.5523 20.5523 21 20 21H4C3.44772 21 3 20.5523 3 20V4C3 3.44772 3.44772 3 4 3ZM11.0026 16L18.0737 8.92893L16.6595 7.51472L11.0026 13.1716L8.17421 10.3431L6.75999 11.7574L11.0026 16Z"></path></symbol><symbol viewBox="0 0 24 24" id="checkbox-indeterminate-fill"><path d="M4 3H20C20.5523 3 21 3.44772 21 4V20C21 20.5523 20.5523 21 20 21H4C3.44772 21 3 20.5523 3 20V4C3 3.44772 3.44772 3 4 3ZM7 11V13H17V11H7Z"></path></symbol><symbol viewBox="0 0 24 24" id="add-box-fill"><path d="M4 3H20C20.5523 3 21 3.44772 21 4V20C21 20.5523 20.5523 21 20 21H4C3.44772 21 3 20.5523 3 20V4C3 3.44772 3.44772 3 4 3ZM11 11H7V13H11V17H13V13H17V11H13V7H11V11Z"></path></symbol><symbol viewBox="0 0 24 24" id="checkbox-blank-circle-fill"><path d="M12 22C17.5228 22 22 17.5228 22 12C22 6.47715 17.5228 2 12 2C6.47715 2 2 6.47715 2 12C2 17.5228 6.47715 22 12 22Z"></path></symbol><symbol viewBox="0 0 24 24" id="checkbox-circle-fill"><path d="M12 22C17.5228 22 22 17.5228 22 12C22 6.47715 17.5228 2 12 2C6.47715 2 2 6.47715 2 12C2 17.5228 6.47715 22 12 22ZM17.4571 9.45711L11 15.9142L6.79289 11.7071L8.20711 10.2929L11 13.0858L16.0429 8.04289L17.4571 9.45711Z"></path></symbol><symbol viewBox="0 0 24 24" id="check-double-fill"><path d="M11.602 13.7599L13.014 15.1719L21.4795 6.7063L22.8938 8.12051L13.014 18.0003L6.65 11.6363L8.06421 10.2221L10.189 12.3469L11.6025 13.7594L11.602 13.7599ZM11.6037 10.9322L16.5563 5.97949L17.9666 7.38977L13.014 12.3424L11.6037 10.9322ZM8.77698 16.5873L7.36396 18.0003L1 11.6363L2.41421 10.2221L3.82723 11.6352L3.82604 11.6363L8.77698 16.5873Z"></path></symbol><symbol viewBox="0 0 24 24" id="check-fill"><path d="M9.9997 15.1709L19.1921 5.97852L20.6063 7.39273L9.9997 17.9993L3.63574 11.6354L5.04996 10.2212L9.9997 15.1709Z"></path></symbol><symbol viewBox="0 0 24 24" id="add-fill"><path d="M11 11V5H13V11H19V13H13V19H11V13H5V11H11Z"></path></symbol><symbol viewBox="0 0 24 24" id="subtract-fill"><path d="M19 11H5V13H19V11Z"></path></symbol><symbol viewBox="0 0 24 24" id="divide-fill"><path d="M5 11H19V13H5V11ZM12 8C11.1716 8 10.5 7.32843 10.5 6.5C10.5 5.67157 11.1716 5 12 5C12.8284 5 13.5 5.67157 13.5 6.5C13.5 7.32843 12.8284 8 12 8ZM12 19C11.1716 19 10.5 18.3284 10.5 17.5C10.5 16.6716 11.1716 16 12 16C12.8284 16 13.5 16.6716 13.5 17.5C13.5 18.3284 12.8284 19 12 19Z"></path></symbol><symbol viewBox="0 0 24 24" id="close-fill"><path d="M11.9997 10.5865L16.9495 5.63672L18.3637 7.05093L13.4139 12.0007L18.3637 16.9504L16.9495 18.3646L11.9997 13.4149L7.04996 18.3646L5.63574 16.9504L10.5855 12.0007L5.63574 7.05093L7.04996 5.63672L11.9997 10.5865Z"></path></symbol><symbol viewBox="0 0 24 24" id="equal-fill"><path d="M19 8H5V10H19V8ZM19 14H5V16H19V14Z"></path></symbol><symbol viewBox="0 0 24 24" id="thumb-up-fill"><path d="M2 8.99997H5V21H2C1.44772 21 1 20.5523 1 20V9.99997C1 9.44769 1.44772 8.99997 2 8.99997ZM7.29289 7.70708L13.6934 1.30661C13.8693 1.13066 14.1479 1.11087 14.3469 1.26016L15.1995 1.8996C15.6842 2.26312 15.9026 2.88253 15.7531 3.46966L14.5998 7.99997H21C22.1046 7.99997 23 8.8954 23 9.99997V12.1043C23 12.3656 22.9488 12.6243 22.8494 12.8658L19.755 20.3807C19.6007 20.7554 19.2355 21 18.8303 21H8C7.44772 21 7 20.5523 7 20V8.41419C7 8.14897 7.10536 7.89462 7.29289 7.70708Z"></path></symbol><symbol viewBox="0 0 24 24" id="thumb-up-line"><path d="M14.5998 8.00033H21C22.1046 8.00033 23 8.89576 23 10.0003V12.1047C23 12.3659 22.9488 12.6246 22.8494 12.8662L19.755 20.3811C19.6007 20.7558 19.2355 21.0003 18.8303 21.0003H2C1.44772 21.0003 1 20.5526 1 20.0003V10.0003C1 9.44804 1.44772 9.00033 2 9.00033H5.48184C5.80677 9.00033 6.11143 8.84246 6.29881 8.57701L11.7522 0.851355C11.8947 0.649486 12.1633 0.581978 12.3843 0.692483L14.1984 1.59951C15.25 2.12534 15.7931 3.31292 15.5031 4.45235L14.5998 8.00033ZM7 10.5878V19.0003H18.1606L21 12.1047V10.0003H14.5998C13.2951 10.0003 12.3398 8.77128 12.6616 7.50691L13.5649 3.95894C13.6229 3.73105 13.5143 3.49353 13.3039 3.38837L12.6428 3.0578L7.93275 9.73038C7.68285 10.0844 7.36341 10.3746 7 10.5878ZM5 11.0003H3V19.0003H5V11.0003Z"></path></symbol><symbol viewBox="0 0 24 24" id="loader-fill"><path d="M11.9995 2C12.5518 2 12.9995 2.44772 12.9995 3V6C12.9995 6.55228 12.5518 7 11.9995 7C11.4472 7 10.9995 6.55228 10.9995 6V3C10.9995 2.44772 11.4472 2 11.9995 2ZM11.9995 17C12.5518 17 12.9995 17.4477 12.9995 18V21C12.9995 21.5523 12.5518 22 11.9995 22C11.4472 22 10.9995 21.5523 10.9995 21V18C10.9995 17.4477 11.4472 17 11.9995 17ZM20.6597 7C20.9359 7.47829 20.772 8.08988 20.2937 8.36602L17.6956 9.86602C17.2173 10.1422 16.6057 9.97829 16.3296 9.5C16.0535 9.02171 16.2173 8.41012 16.6956 8.13398L19.2937 6.63397C19.772 6.35783 20.3836 6.52171 20.6597 7ZM7.66935 14.5C7.94549 14.9783 7.78161 15.5899 7.30332 15.866L4.70525 17.366C4.22695 17.6422 3.61536 17.4783 3.33922 17C3.06308 16.5217 3.22695 15.9101 3.70525 15.634L6.30332 14.134C6.78161 13.8578 7.3932 14.0217 7.66935 14.5ZM20.6597 17C20.3836 17.4783 19.772 17.6422 19.2937 17.366L16.6956 15.866C16.2173 15.5899 16.0535 14.9783 16.3296 14.5C16.6057 14.0217 17.2173 13.8578 17.6956 14.134L20.2937 15.634C20.772 15.9101 20.9359 16.5217 20.6597 17ZM7.66935 9.5C7.3932 9.97829 6.78161 10.1422 6.30332 9.86602L3.70525 8.36602C3.22695 8.08988 3.06308 7.47829 3.33922 7C3.61536 6.52171 4.22695 6.35783 4.70525 6.63397L7.30332 8.13398C7.78161 8.41012 7.94549 9.02171 7.66935 9.5Z"></path></symbol></svg>